<svg xmlns="http://www.w3.org/2000/svg" viewBox="0 0 256 256" role="img" aria-labelledby="title"><title>ViShot Downloader</title><defs><linearGradient id="g" x1="0" y1="0" x2="1" y2="1"><stop offset="0" stop-color="#ffe53b"/><stop offset="1" stop-color="#ff4f45"/></linearGradient></defs><rect width="256" height="256" rx="58" fill="#101010"/><circle cx="128" cy="128" r="88" fill="url(#g)"/><path d="M128 54c12 0 22 10 22 22v58l23-23c8-8 21-8 29 0s8 21 0 29l-59 59c-8 8-21 8-29 0l-59-59c-8-8-8-21 0-29s21-8 29 0l23 23V76c0-12 10-22 21-22Z" fill="#101010"/><rect x="66" y="204" width="124" height="18" rx="9" fill="#101010"/></svg>